# xmcd CD database file
#
# Track frame offsets:
#	150
#	15607
#	31420
#	43682
#	58825
#	71807
#	88572
#	102252
#	118192
#	130362
#
# Disc length: 1979 seconds
#
# Revision: 2
# Processed by: cddbd v1.5.2PL0 Copyright (c) Steve Scherf et al.
# Submitted via: CDex 1.70beta2
#
DISCID=8c07b90a
DTITLE=Miitchell John - Dreamin' Home
DYEAR=1994
DGENRE=Country
TTITLE0=Son Of A Gun
TTITLE1=Dreamin' Home
TTITLE2=Understatement Of The Year
TTITLE3=The Last Rodeo
TTITLE4=Hell On Saturday Night
TTITLE5=Truck Drivin' Cowboy
TTITLE6=You Just Can't See Him From The Road
TTITLE7=Under My Hat
TTITLE8=On And On
TTITLE9=Stronger Hand Than Mine
EXTD=YEAR: 1994
EXTT0=
EXTT1=
EXTT2=
EXTT3=
EXTT4=
EXTT5=
EXTT6=
EXTT7=
EXTT8=
EXTT9=
PLAYORDER=
